{"title":"A.Witches.Ball.2017.HDRip.XviD.AC3","magnet":"magnet:?xt=urn:btih:48e5ed3bce0b1b001013c842ab718715b91ef43b&dn=A.Witches.Ball.2017.HDRip.XviD.AC3&tr=udp%3A%2F%2Ftracker.leechers-paradise.org%3A6969&tr=udp%3A%2F%2Fzer0day.ch%3A1337&tr=udp%3A%2F%2Fopen.demonii.com%3A1337&tr=udp%3A%2F%2Ftracker.coppersurfer.tk%3A6969&tr=udp%3A%2F%2Fexodus.desync.com%3A6969","uploader":"LifeLongg","categoryP":"video","categoryS":"movies","size":"996521962","seeders":"0","leechers":"0","description":"******************************Screenshots:********************\r\n <a href=\"\nhttp://picserver4u.com/0886.html\" rel=\"nofollow\" target=\"_NEW\">\nhttp://picserver4u.com/0886.html</a>\r\n <a href=\"\nhttp://picserver4u.com/0887.html\" rel=\"nofollow\" target=\"_NEW\">\nhttp://picserver4u.com/0887.html</a>\r\n <a href=\"\nhttp://picserver4u.com/0888.html\" rel=\"nofollow\" target=\"_NEW\">\nhttp://picserver4u.com/0888.html</a>\r\n <a href=\"\nhttp://picserver4u.com/0889.html\" rel=\"nofollow\" target=\"_NEW\">\nhttp://picserver4u.com/0889.html</a>\r\n <a href=\"\nhttp://picserver4u.com/0890.html\" rel=\"nofollow\" target=\"_NEW\">\nhttp://picserver4u.com/0890.html</a>\r\n\r\n\r\n****************************************************************\r\n\r\nGeneral\r\nComplete name                            : A.Witches.Ball.2017.HDRip.XviD.AC3.mp4\r\nFormat                                   : MPEG-4\r\nFormat profile                           : Base Media\r\nCodec ID                                 : isom (isom/iso2/avc1/mp41)\r\nFile size                                : 941 MiB\r\nDuration                                 : 1 h 30 min\r\nOverall bit rate                         : 1 452 kb/s\r\nWriting application                      : Lavf57.56.101\r\n\r\nVideo\r\nID                                       : 1\r\nFormat                                   : AVC\r\nFormat/Info                              : Advanced Video Codec\r\nFormat profile                           : <a href=\"/cdn-cgi/l/email-protection\" class=\"__cf_email__\" data-cfemail=\"054d6c626d454936\">[email&#xA0;protected]</a>\r\nFormat settings                          : CABAC / 4 Ref Frames\r\nFormat settings, CABAC                   : Yes\r\nFormat settings, RefFrames               : 4 frames\r\nCodec ID                                 : avc1\r\nCodec ID/Info                            : Advanced Video Coding\r\nDuration                                 : 1 h 30 min\r\nBit rate                                 : 1 200 kb/s\r\nWidth                                    : 720 pixels\r\nHeight                                   : 400 pixels\r\nDisplay aspect ratio                     : 16:9\r\nFrame rate mode                          : Constant\r\nFrame rate                               : 23.976 (23976/1000) FPS\r\nColor space                              : YUV\r\nChroma subsampling                       : 4:2:0\r\nBit depth                                : 8 bits\r\nScan type                                : Progressive\r\nBits/(Pixel*Frame)                       : 0.174\r\nStream size                              : 772 MiB (82%)\r\n\r\n\r\nAudio\r\nID                                       : 2\r\nFormat                                   : AC-3\r\nFormat/Info                              : Audio Coding 3\r\nCodec ID                                 : ac-3\r\nDuration                                 : 1 h 30 min\r\nBit rate mode                            : Constant\r\nBit rate                                 : 256 kb/s\r\nChannel(s)                               : 6 channels\r\nChannel positions                        : Front: L C R, Side: L R, LFE\r\nSampling rate                            : 48.0 kHz\r\nFrame rate                               : 31.250 FPS (1536 SPF)\r\nBit depth                                : 16 bits\r\nCompression mode                         : Lossy\r\nStream size                              : 166 MiB (18%)\r\nService kind                             : Complete Main\r\nDefault                                  : Yes\r\nAlternate group                          : 1","last_updated":"2017-12-08T12:08:14.320Z","parsed":{"xt":"urn:btih:48e5ed3bce0b1b001013c842ab718715b91ef43b","dn":"A.Witches.Ball.2017.HDRip.XviD.AC3","tr":["udp://exodus.desync.com:6969","udp://open.demonii.com:1337","udp://tracker.coppersurfer.tk:6969","udp://tracker.leechers-paradise.org:6969","udp://zer0day.ch:1337"],"infoHash":"48e5ed3bce0b1b001013c842ab718715b91ef43b","infoHashBuffer":{"type":"Buffer","data":[72,229,237,59,206,11,27,0,16,19,200,66,171,113,135,21,185,30,244,59]},"name":"A.Witches.Ball.2017.HDRip.XviD.AC3","announce":["udp://exodus.desync.com:6969","udp://open.demonii.com:1337","udp://tracker.coppersurfer.tk:6969","udp://tracker.leechers-paradise.org:6969","udp://zer0day.ch:1337"],"urlList":[]}}